<?xml version="1.0" encoding="UTF-8" standalone="no"?>
<!-- Created with Inkscape (http://www.inkscape.org/) -->

<svg
   width="75.46579mm"
   height="86.010307mm"
   viewBox="0 0 75.46579 86.01031"
   version="1.1"
   id="svg5"
   inkscape:version="1.2.2 (b0a8486541, 2022-12-01)"
   sodipodi:docname="g543.svg"
   xml:space="preserve"
   inkscape:export-filename="linkyshop.png"
   inkscape:export-xdpi="96"
   inkscape:export-ydpi="96"
   xmlns:inkscape="http://www.inkscape.org/namespaces/inkscape"
   xmlns:sodipodi="http://sodipodi.sourceforge.net/DTD/sodipodi-0.dtd"
   xmlns:xlink="http://www.w3.org/1999/xlink"
   xmlns="http://www.w3.org/2000/svg"
   xmlns:svg="http://www.w3.org/2000/svg"><sodipodi:namedview
     id="namedview7"
     pagecolor="#ffffff"
     bordercolor="#666666"
     borderopacity="1.0"
     inkscape:pageshadow="2"
     inkscape:pageopacity="0.0"
     inkscape:pagecheckerboard="0"
     inkscape:document-units="mm"
     showgrid="false"
     inkscape:snap-grids="false"
     inkscape:snap-to-guides="false"
     inkscape:snap-bbox="false"
     showguides="false"
     width="300mm"
     inkscape:zoom="2.625532"
     inkscape:cx="174.82171"
     inkscape:cy="250.80631"
     inkscape:window-width="3300"
     inkscape:window-height="2027"
     inkscape:window-x="0"
     inkscape:window-y="88"
     inkscape:window-maximized="1"
     inkscape:current-layer="layer1"
     inkscape:showpageshadow="2"
     inkscape:deskcolor="#d1d1d1" /><defs
     id="defs2"><linearGradient
       inkscape:collect="always"
       id="linearGradient14779"><stop
         style="stop-color:#ffffff;stop-opacity:1"
         offset="0"
         id="stop14775" /><stop
         style="stop-color:#ffffff;stop-opacity:0;"
         offset="1"
         id="stop14777" /></linearGradient><linearGradient
       inkscape:collect="always"
       id="linearGradient9841"><stop
         style="stop-color:#ef5b00;stop-opacity:1;"
         offset="0"
         id="stop9837" /><stop
         style="stop-color:#ff0005;stop-opacity:0;"
         offset="1"
         id="stop9839" /></linearGradient><linearGradient
       inkscape:collect="always"
       id="linearGradient9617"><stop
         style="stop-color:#1e73f3;stop-opacity:1;"
         offset="0"
         id="stop9613" /><stop
         style="stop-color:#5dceff;stop-opacity:1"
         offset="1"
         id="stop9615" /></linearGradient><linearGradient
       inkscape:collect="always"
       xlink:href="#linearGradient14779"
       id="linearGradient460"
       gradientUnits="userSpaceOnUse"
       gradientTransform="matrix(-1,0,0,1,-586.34613,-48.695325)"
       x1="-263.72556"
       y1="-677.36737"
       x2="-304.1178"
       y2="-641.79175" /><linearGradient
       inkscape:collect="always"
       xlink:href="#linearGradient9617"
       id="linearGradient462"
       gradientUnits="userSpaceOnUse"
       gradientTransform="matrix(-3.3750292,0,0,3.1694807,1784.0588,-732.73726)"
       x1="616.60614"
       y1="-2.0936258"
       x2="655.27631"
       y2="13.324268" /><linearGradient
       inkscape:collect="always"
       xlink:href="#linearGradient9841"
       id="linearGradient464"
       gradientUnits="userSpaceOnUse"
       gradientTransform="matrix(-3.3750292,0,0,3.1694807,1784.0588,-732.73726)"
       x1="625.81879"
       y1="-19.992168"
       x2="625.2735"
       y2="4.04847" /><linearGradient
       inkscape:collect="always"
       xlink:href="#linearGradient9617"
       id="linearGradient466"
       gradientUnits="userSpaceOnUse"
       gradientTransform="matrix(-3.3750292,0,0,3.1694807,1784.0588,-732.73726)"
       x1="616.60614"
       y1="-2.0936258"
       x2="655.27631"
       y2="13.324268" /><linearGradient
       inkscape:collect="always"
       xlink:href="#linearGradient9841"
       id="linearGradient468"
       gradientUnits="userSpaceOnUse"
       gradientTransform="matrix(-3.3750292,0,0,3.1694807,1784.0588,-732.73726)"
       x1="625.81879"
       y1="-19.992168"
       x2="625.2735"
       y2="4.04847" /></defs><g
     inkscape:label="Layer 1"
     inkscape:groupmode="layer"
     id="layer1"
     transform="translate(298.5129,626.74904)"><g
       id="g543"
       transform="matrix(0.85079098,0,0,0.85079098,15.767777,53.584751)"><path
         id="path428"
         style="fill:url(#linearGradient468);fill-opacity:1;stroke:none;stroke-width:0.123544;stroke-opacity:1"
         d="m -325.72424,-797.58563 a 31.932924,28.872205 0 0 1 31.93257,28.87245 31.932924,28.872205 0 0 1 -2.27257,10.68386 5.4494842,4.9875053 0 0 0 -3.50912,-1.17764 5.4494842,4.9875053 0 0 0 -5.45027,4.98897 5.4494842,4.9875053 0 0 0 3.25971,4.56312 31.932924,28.872205 0 0 1 -23.96032,9.8125 31.932924,28.872205 0 0 1 -24.28131,-10.15318 5.4494842,4.9875053 0 0 0 3.22113,-4.54838 5.4494842,4.9875053 0 0 0 -5.44831,-4.98733 5.4494842,4.9875053 0 0 0 -3.33993,1.04661 31.932924,28.872205 0 0 1 -2.08442,-10.22853 31.932924,28.872205 0 0 1 31.93284,-28.87245 z m 0,6.61701 a 24.614514,22.255252 0 0 0 -24.61442,22.25544 24.614514,22.255252 0 0 0 24.61442,22.25544 24.614514,22.255252 0 0 0 24.61436,-22.25544 24.614514,22.255252 0 0 0 -24.61436,-22.25544 z" /><path
         id="path430"
         style="fill:url(#linearGradient466);fill-opacity:1;fill-rule:evenodd;stroke:none;stroke-width:0.274894;stroke-opacity:1"
         d="m -300.0111,-767.6158 c 0.15019,-5e-4 0.30679,0.001 0.47088,0.005 4.59315,0.10681 14.38218,1.83667 15.62534,3.7147 2.87171,4.33797 2.20551,19.65915 -2.09117,34.1202 -2.64683,8.90843 -6.66963,17.4906 -12.09529,22.97611 -5.92932,5.99476 -16.22856,7.48388 -26.22766,7.18208 -0.28013,0.009 -0.55789,3e-5 -0.83734,0.005 -0.28013,-0.005 -0.55823,0.003 -0.83701,-0.005 -0.081,0.003 -0.15863,0.004 -0.23963,0.005 -9.92427,0.27102 -20.1064,-1.23985 -25.98874,-7.187 -14.23317,-14.39012 -18.82894,-50.08767 -14.18828,-57.09794 1.24336,-1.87803 11.03229,-3.60623 15.62537,-3.71306 0.65611,-0.0152 1.20759,0.002 1.61158,0.0573 2.36657,0.32361 15.03913,2.35337 24.01603,2.41914 8.9769,-0.0658 21.6499,-2.09553 24.01634,-2.41914 0.30308,-0.0414 0.68847,-0.061 1.1389,-0.0623 z m -52.22163,8.08454 a 5.4494842,4.9875053 0 0 0 -5.45033,4.98733 5.4494842,4.9875053 0 0 0 5.45033,4.98733 5.4494842,4.9875053 0 0 0 5.44831,-4.98733 5.4494842,4.9875053 0 0 0 -5.44831,-4.98733 z m 52.65937,0.3243 a 5.4494842,4.9875053 0 0 0 -5.45027,4.98897 5.4494842,4.9875053 0 0 0 5.45027,4.98733 5.4494842,4.9875053 0 0 0 5.44858,-4.98733 5.4494842,4.9875053 0 0 0 -5.44858,-4.98897 z" /><path
         id="path529"
         style="font-variation-settings:'wght' 900;fill:#ffffff;fill-opacity:1;stroke-width:3.18087;stroke-opacity:0.972549"
         d="m -306.524,-701.76098 c 0.0514,-0.0177 0.10381,-0.0342 0.15502,-0.0522 0.26719,-0.0937 0.53182,-0.1909 0.79375,-0.29146 0.26194,-0.10056 0.52083,-0.2045 0.77722,-0.31212 0.25639,-0.10762 0.51011,-0.21899 0.76068,-0.33383 0.25056,-0.11485 0.49814,-0.2333 0.74259,-0.35554 0.24445,-0.12223 0.48593,-0.24796 0.72398,-0.37775 0.23806,-0.1298 0.47247,-0.26349 0.70384,-0.40101 0.23137,-0.13752 0.45979,-0.27886 0.68419,-0.42426 0.2244,-0.14541 0.44483,-0.29509 0.66198,-0.44856 0.21715,-0.15346 0.43065,-0.31115 0.64027,-0.47283 0.20961,-0.16169 0.41574,-0.32706 0.61753,-0.49713 0.20179,-0.17007 0.39956,-0.34487 0.59325,-0.52348 0.19368,-0.17862 0.38315,-0.36147 0.56844,-0.54881 0.16955,-0.17142 0.33755,-0.34558 0.50436,-0.52296 0.16681,-0.17739 0.33253,-0.35788 0.49661,-0.54106 0.16407,-0.18318 0.32649,-0.3693 0.48783,-0.5581 0.16133,-0.18881 0.32146,-0.38038 0.48007,-0.57464 0.1586,-0.19427 0.31593,-0.39112 0.47181,-0.59066 0.15587,-0.19955 0.31039,-0.4015 0.46353,-0.60617 0.15314,-0.20467 0.30486,-0.41205 0.45527,-0.62167 0.15041,-0.20961 0.29932,-0.42174 0.447,-0.63613 0.29537,-0.4288 0.58525,-0.86672 0.86972,-1.31362 0.0825,-0.12964 0.16127,-0.26526 0.24288,-0.39636 -2.1095,-1.26087 -6.01062,-3.62359 -6.21564,-3.78323 -0.99666,-0.77675 -1.23816,-2.11992 -0.57878,-3.22099 0.10609,-0.1771 0.7627,-0.94845 1.45934,-1.71307 0.69652,-0.76477 1.35766,-1.53988 1.46813,-1.72186 0.56449,-0.92865 0.25616,-1.81582 -0.78703,-2.27067 -0.12251,-0.0527 -1.3055,-0.37276 -2.6293,-0.71003 -1.32394,-0.33726 -3.26689,-0.83212 -4.31808,-1.09967 -1.0512,-0.26754 -2.39944,-0.61141 -2.99568,-0.76275 -0.5961,-0.15134 -3.67672,-0.935 -6.8461,-1.74098 -7.66936,-1.95036 -8.62518,-2.19421 -10.49703,-2.67374 -1.09018,-0.27859 -1.74295,-0.42944 -2.18437,-0.44751 -0.0552,-0.003 -0.10769,-0.004 -0.15657,-0.003 -0.34257,0.005 -0.54343,0.10353 -0.75345,0.28525 -0.33315,0.28878 -0.45367,0.68908 -0.36483,1.20819 0.0348,0.20328 0.61933,1.9005 1.29863,3.77083 8.41996,23.18345 8.94007,24.59857 9.15758,24.9344 0.4233,0.65309 1.09716,0.88808 1.76991,0.61702 0.43561,-0.17558 0.54484,-0.27905 2.05621,-1.94459 0.73055,-0.80499 1.43154,-1.5226 1.6092,-1.64744 0.79514,-0.55812 1.85318,-0.57635 2.70578,-0.0476 0.34931,0.2166 0.67241,0.58777 1.60714,1.84589 0.35628,0.47948 1.09733,1.4936 1.85312,2.52594 z" /><path
         id="path434"
         style="fill:url(#linearGradient464);fill-opacity:1;stroke:none;stroke-width:0.123544;stroke-opacity:1"
         d="m -325.72424,-797.58563 a 31.932924,28.872205 0 0 1 31.93257,28.87245 31.932924,28.872205 0 0 1 -2.27257,10.68386 5.4494842,4.9875053 0 0 0 -3.50912,-1.17764 5.4494842,4.9875053 0 0 0 -5.45027,4.98897 5.4494842,4.9875053 0 0 0 3.25971,4.56312 31.932924,28.872205 0 0 1 -23.96032,9.8125 31.932924,28.872205 0 0 1 -24.28131,-10.15318 5.4494842,4.9875053 0 0 0 3.22113,-4.54838 5.4494842,4.9875053 0 0 0 -5.44831,-4.98733 5.4494842,4.9875053 0 0 0 -3.33993,1.04661 31.932924,28.872205 0 0 1 -2.08442,-10.22853 31.932924,28.872205 0 0 1 31.93284,-28.87245 z m 0,6.61701 a 24.614514,22.255252 0 0 0 -24.61442,22.25544 24.614514,22.255252 0 0 0 24.61442,22.25544 24.614514,22.255252 0 0 0 24.61436,-22.25544 24.614514,22.255252 0 0 0 -24.61436,-22.25544 z" /><path
         id="path436"
         style="fill:url(#linearGradient462);fill-opacity:1;fill-rule:evenodd;stroke:none;stroke-width:0.274894;stroke-opacity:1"
         d="m -300.0111,-767.6158 c 0.15019,-5e-4 0.30679,0.001 0.47088,0.005 4.59315,0.10681 14.38218,1.83667 15.62534,3.7147 2.87171,4.33797 2.20551,19.65915 -2.09117,34.1202 -2.64683,8.90843 -6.66963,17.4906 -12.09529,22.97611 -5.92932,5.99476 -16.22856,7.48388 -26.22766,7.18208 -0.28013,0.009 -0.55789,3e-5 -0.83734,0.005 -0.28013,-0.005 -0.55823,0.003 -0.83701,-0.005 -0.081,0.003 -0.15863,0.004 -0.23963,0.005 -9.92427,0.27102 -20.1064,-1.23985 -25.98874,-7.187 -14.23317,-14.39012 -18.82894,-50.08767 -14.18828,-57.09794 1.24336,-1.87803 11.03229,-3.60623 15.62537,-3.71306 0.65611,-0.0152 1.20759,0.002 1.61158,0.0573 2.36657,0.32361 15.03913,2.35337 24.01603,2.41914 8.9769,-0.0658 21.6499,-2.09553 24.01634,-2.41914 0.30308,-0.0414 0.68847,-0.061 1.1389,-0.0623 z m -52.22163,8.08454 a 5.4494842,4.9875053 0 0 0 -5.45033,4.98733 5.4494842,4.9875053 0 0 0 5.45033,4.98733 5.4494842,4.9875053 0 0 0 5.44831,-4.98733 5.4494842,4.9875053 0 0 0 -5.44831,-4.98733 z m 52.65937,0.3243 a 5.4494842,4.9875053 0 0 0 -5.45027,4.98897 5.4494842,4.9875053 0 0 0 5.45027,4.98733 5.4494842,4.9875053 0 0 0 5.44858,-4.98733 5.4494842,4.9875053 0 0 0 -5.44858,-4.98897 z" /><path
         id="path438"
         style="font-variation-settings:'wght' 900;fill:url(#linearGradient460);fill-opacity:1;stroke-width:3.18087;stroke-opacity:0.972549"
         d="m -327.46317,-733.30881 c -0.34257,0.005 -0.54342,0.10353 -0.75344,0.28525 -0.33315,0.28878 -0.45367,0.68907 -0.36483,1.20819 0.0348,0.20328 0.61932,1.9005 1.29862,3.77083 8.41997,23.18345 8.94007,24.59857 9.15758,24.9344 0.4233,0.65309 1.09716,0.88808 1.76992,0.61702 0.43561,-0.17558 0.54484,-0.27905 2.05621,-1.94459 0.73055,-0.80499 1.43154,-1.5226 1.6092,-1.64744 0.79514,-0.55812 1.85318,-0.57636 2.70578,-0.0476 0.34931,0.2166 0.67241,0.58725 1.60714,1.84537 0.35623,0.47943 1.09689,1.49371 1.8526,2.52594 3.26939,-1.12605 6.16423,-2.75449 8.42326,-5.03845 1.79382,-1.81361 3.43097,-3.97089 4.91907,-6.36137 -2.10945,-1.26085 -6.0106,-3.62358 -6.21564,-3.78323 -0.99666,-0.77675 -1.23815,-2.11992 -0.57877,-3.22099 0.10609,-0.1771 0.7627,-0.94846 1.45934,-1.71307 0.69652,-0.76477 1.35714,-1.53988 1.46761,-1.72186 0.56449,-0.92865 0.25667,-1.81582 -0.78651,-2.27067 -0.12251,-0.0527 -1.3055,-0.37276 -2.6293,-0.71003 -1.32394,-0.33726 -3.26741,-0.83264 -4.3186,-1.10019 -1.0512,-0.26754 -2.39943,-0.61089 -2.99568,-0.76223 -0.5961,-0.15134 -3.6762,-0.935 -6.84558,-1.74098 -7.66936,-1.95036 -8.6257,-2.19421 -10.49755,-2.67374 -1.09018,-0.27859 -1.74294,-0.42996 -2.18436,-0.44803 -0.0552,-0.003 -0.10719,-0.004 -0.15607,-0.003 z" /><rect
         style="font-variation-settings:'wght' 900;fill:#ffffff;fill-opacity:1;stroke:none;stroke-width:1.865;stroke-opacity:0.972549"
         id="rect440"
         width="3.6658437"
         height="12.927976"
         x="787.98187"
         y="-159.0498"
         ry="1.8329219"
         transform="matrix(-0.56045214,-0.82818681,-0.82818681,0.56045214,0,0)" /><rect
         style="font-variation-settings:'wght' 900;fill:#ffffff;fill-opacity:1;stroke:none;stroke-width:1.865;stroke-opacity:0.972549"
         id="rect442"
         width="3.6658437"
         height="12.927976"
         x="566.36847"
         y="-560.40967"
         ry="1.8329219"
         transform="matrix(-0.9339199,-0.35748234,-0.35748234,0.9339199,0,0)" /><rect
         style="font-variation-settings:'wght' 900;fill:#ffffff;fill-opacity:1;stroke:none;stroke-width:1.865;stroke-opacity:0.972549"
         id="rect444"
         width="3.6658437"
         height="12.927976"
         x="755.5354"
         y="266.16089"
         ry="1.8329219"
         transform="matrix(-0.08810433,-0.99611125,-0.99611125,0.08810433,0,0)" /><rect
         style="font-variation-settings:'wght' 900;fill:#ffffff;fill-opacity:1;stroke:none;stroke-width:1.865;stroke-opacity:0.972549"
         id="rect446"
         width="3.6658437"
         height="12.927976"
         x="333.6824"
         y="733.41321"
         ry="1.8329219"
         transform="rotate(-179.30247)" /><rect
         style="font-variation-settings:'wght' 900;fill:#ffffff;fill-opacity:1;stroke:none;stroke-width:1.865;stroke-opacity:0.972549"
         id="rect448"
         width="3.6658437"
         height="12.927976"
         x="-425.81967"
         y="-700.37305"
         ry="1.8329219"
         transform="matrix(-0.56107315,0.82776622,0.82776622,0.56107315,0,0)" /></g></g></svg>
