<?xml version="1.0" encoding="UTF-8" standalone="no"?>
<!-- Created with Inkscape (http://www.inkscape.org/) -->

<svg
   width="258.18881mm"
   height="98.276161mm"
   viewBox="0 0 258.18881 98.276164"
   version="1.1"
   id="svg5"
   inkscape:version="1.2.2 (b0a8486541, 2022-12-01)"
   sodipodi:docname="linkyshop.svg"
   xml:space="preserve"
   inkscape:export-filename="linkyshop.png"
   inkscape:export-xdpi="96"
   inkscape:export-ydpi="96"
   xmlns:inkscape="http://www.inkscape.org/namespaces/inkscape"
   xmlns:sodipodi="http://sodipodi.sourceforge.net/DTD/sodipodi-0.dtd"
   xmlns:xlink="http://www.w3.org/1999/xlink"
   xmlns="http://www.w3.org/2000/svg"
   xmlns:svg="http://www.w3.org/2000/svg"><sodipodi:namedview
     id="namedview7"
     pagecolor="#ffffff"
     bordercolor="#666666"
     borderopacity="1.0"
     inkscape:pageshadow="2"
     inkscape:pageopacity="0.0"
     inkscape:pagecheckerboard="0"
     inkscape:document-units="mm"
     showgrid="false"
     inkscape:snap-grids="false"
     inkscape:snap-to-guides="false"
     inkscape:snap-bbox="false"
     showguides="false"
     width="300mm"
     inkscape:zoom="0.18284571"
     inkscape:cx="552.3783"
     inkscape:cy="2502.1096"
     inkscape:window-width="3300"
     inkscape:window-height="2027"
     inkscape:window-x="0"
     inkscape:window-y="88"
     inkscape:window-maximized="1"
     inkscape:current-layer="layer1"
     inkscape:showpageshadow="2"
     inkscape:deskcolor="#d1d1d1" /><defs
     id="defs2"><linearGradient
       inkscape:collect="always"
       id="linearGradient14779"><stop
         style="stop-color:#ffffff;stop-opacity:1"
         offset="0"
         id="stop14775" /><stop
         style="stop-color:#ffffff;stop-opacity:0;"
         offset="1"
         id="stop14777" /></linearGradient><linearGradient
       inkscape:collect="always"
       id="linearGradient9841"><stop
         style="stop-color:#ef5b00;stop-opacity:1;"
         offset="0"
         id="stop9837" /><stop
         style="stop-color:#ff0005;stop-opacity:0;"
         offset="1"
         id="stop9839" /></linearGradient><linearGradient
       inkscape:collect="always"
       id="linearGradient9617"><stop
         style="stop-color:#1e73f3;stop-opacity:1;"
         offset="0"
         id="stop9613" /><stop
         style="stop-color:#5dceff;stop-opacity:1"
         offset="1"
         id="stop9615" /></linearGradient><linearGradient
       inkscape:collect="always"
       xlink:href="#linearGradient14779"
       id="linearGradient14885"
       gradientUnits="userSpaceOnUse"
       x1="-263.72556"
       y1="-677.36737"
       x2="-304.1178"
       y2="-641.79175"
       gradientTransform="matrix(-1,0,0,1,-486.52283,-95.012082)" /><linearGradient
       inkscape:collect="always"
       xlink:href="#linearGradient9617"
       id="linearGradient14887"
       gradientUnits="userSpaceOnUse"
       gradientTransform="matrix(-3.3750292,0,0,3.1694807,1883.8821,-779.05401)"
       x1="616.60614"
       y1="-2.0936258"
       x2="655.27631"
       y2="13.324268" /><linearGradient
       inkscape:collect="always"
       xlink:href="#linearGradient9841"
       id="linearGradient14889"
       gradientUnits="userSpaceOnUse"
       gradientTransform="matrix(-3.3750292,0,0,3.1694807,1883.8821,-779.05401)"
       x1="625.81879"
       y1="-19.992168"
       x2="625.2735"
       y2="4.04847" /><linearGradient
       inkscape:collect="always"
       xlink:href="#linearGradient9617"
       id="linearGradient14891"
       gradientUnits="userSpaceOnUse"
       gradientTransform="matrix(-3.3750292,0,0,3.1694807,1883.8821,-779.05401)"
       x1="616.60614"
       y1="-2.0936258"
       x2="655.27631"
       y2="13.324268" /><linearGradient
       inkscape:collect="always"
       xlink:href="#linearGradient9841"
       id="linearGradient14893"
       gradientUnits="userSpaceOnUse"
       gradientTransform="matrix(-3.3750292,0,0,3.1694807,1883.8821,-779.05401)"
       x1="625.81879"
       y1="-19.992168"
       x2="625.2735"
       y2="4.04847" /></defs><g
     inkscape:label="Layer 1"
     inkscape:groupmode="layer"
     id="layer1"
     transform="translate(268.3391,843.90239)"><g
       id="g13687"
       transform="matrix(3.3750292,0,0,3.1694807,-2472.8515,-553.15652)"><rect
         style="font-variation-settings:'wght' 900;fill:#ffffff;fill-opacity:1;stroke:none;stroke-width:0.570225;stroke-opacity:0.972549"
         id="rect14531"
         width="41.013538"
         height="46.449635"
         x="319.73404"
         y="-180.56203" /><rect
         style="font-variation-settings:'wght' 900;fill:#ffffff;fill-opacity:1;stroke:none;stroke-width:0.570225;stroke-opacity:0.972549"
         id="rect14533"
         width="41.013538"
         height="46.449635"
         x="319.00278"
         y="-116.27784" /><rect
         style="font-variation-settings:'wght' 900;fill:#ffffff;fill-opacity:1;stroke:none;stroke-width:0.570225;stroke-opacity:0.972549"
         id="rect14533-3"
         width="41.013538"
         height="46.449635"
         x="319.52808"
         y="-30.163971" /><rect
         style="font-variation-settings:'wght' 900;fill:#ffffff;fill-opacity:1;stroke:none;stroke-width:0.359502;stroke-opacity:0.972549"
         id="rect14533-6"
         width="26.666435"
         height="28.395819"
         x="642.01349"
         y="-23.892462" /><rect
         style="font-variation-settings:'wght' 900;fill:#ffffff;fill-opacity:1;stroke:none;stroke-width:0.570225;stroke-opacity:0.972549"
         id="rect14533-6-5"
         width="41.013538"
         height="46.449635"
         x="376.06342"
         y="30.811222" /><rect
         style="font-variation-settings:'wght' 900;fill:#ffffff;fill-opacity:1;stroke:none;stroke-width:0.570225;stroke-opacity:0.972549"
         id="rect14535"
         width="41.013538"
         height="46.449635"
         x="379.46014"
         y="-179.85512" /><rect
         style="font-variation-settings:'wght' 900;fill:#ffffff;fill-opacity:1;stroke:none;stroke-width:0.570225;stroke-opacity:0.972549"
         id="rect14537"
         width="41.013538"
         height="46.449635"
         x="379.60718"
         y="-114.83582" /></g><g
       id="g1180"><path
         id="path14859"
         style="fill:url(#linearGradient14893);fill-opacity:1;stroke:none;stroke-width:0.123544;stroke-opacity:1"
         d="m -225.90094,-843.90238 a 31.932924,28.872205 0 0 1 31.93257,28.87245 31.932924,28.872205 0 0 1 -2.27257,10.68386 5.4494842,4.9875053 0 0 0 -3.50912,-1.17764 5.4494842,4.9875053 0 0 0 -5.45027,4.98897 5.4494842,4.9875053 0 0 0 3.25971,4.56312 31.932924,28.872205 0 0 1 -23.96032,9.8125 31.932924,28.872205 0 0 1 -24.28131,-10.15318 5.4494842,4.9875053 0 0 0 3.22113,-4.54838 5.4494842,4.9875053 0 0 0 -5.44831,-4.98733 5.4494842,4.9875053 0 0 0 -3.33993,1.04661 31.932924,28.872205 0 0 1 -2.08442,-10.22853 31.932924,28.872205 0 0 1 31.93284,-28.87245 z m 0,6.61701 a 24.614514,22.255252 0 0 0 -24.61442,22.25544 24.614514,22.255252 0 0 0 24.61442,22.25544 24.614514,22.255252 0 0 0 24.61436,-22.25544 24.614514,22.255252 0 0 0 -24.61436,-22.25544 z" /><path
         id="path14861"
         style="fill:url(#linearGradient14891);fill-opacity:1;fill-rule:evenodd;stroke:none;stroke-width:0.274894;stroke-opacity:1"
         d="m -200.1878,-813.93255 c 0.15019,-5e-4 0.30679,10e-4 0.47088,0.005 4.59315,0.10681 14.38218,1.83667 15.62534,3.7147 2.87171,4.33797 2.20551,19.65915 -2.09117,34.1202 -2.64683,8.90843 -6.66963,17.4906 -12.09529,22.97611 -5.92932,5.99476 -16.22856,7.48388 -26.22766,7.18208 -0.28013,0.009 -0.55789,3e-5 -0.83734,0.005 -0.28013,-0.005 -0.55823,0.003 -0.83701,-0.005 -0.081,0.003 -0.15863,0.004 -0.23963,0.005 -9.92427,0.27102 -20.1064,-1.23985 -25.98874,-7.187 -14.23317,-14.39012 -18.82894,-50.08767 -14.18828,-57.09794 1.24336,-1.87803 11.03229,-3.60623 15.62537,-3.71306 0.65611,-0.0152 1.20759,0.002 1.61158,0.0573 2.36657,0.32361 15.03913,2.35337 24.01603,2.41914 8.9769,-0.0658 21.6499,-2.09553 24.01634,-2.41914 0.30308,-0.0414 0.68847,-0.061 1.1389,-0.0623 z m -52.22163,8.08454 a 5.4494842,4.9875053 0 0 0 -5.45033,4.98733 5.4494842,4.9875053 0 0 0 5.45033,4.98733 5.4494842,4.9875053 0 0 0 5.44831,-4.98733 5.4494842,4.9875053 0 0 0 -5.44831,-4.98733 z m 52.65937,0.3243 a 5.4494842,4.9875053 0 0 0 -5.45027,4.98897 5.4494842,4.9875053 0 0 0 5.45027,4.98733 5.4494842,4.9875053 0 0 0 5.44858,-4.98733 5.4494842,4.9875053 0 0 0 -5.44858,-4.98897 z" /><path
         id="path1161"
         style="font-variation-settings:'wght' 900;fill:#ffffff;fill-opacity:1;stroke-width:3.18087;stroke-opacity:0.972549"
         d="m -206.69961,-748.07857 c 0.0511,-0.0176 0.10314,-0.0338 0.154,-0.0517 0.26719,-0.0937 0.53182,-0.19038 0.79375,-0.29094 0.26193,-0.10056 0.52082,-0.20502 0.77721,-0.31264 0.25639,-0.10762 0.51012,-0.21847 0.76068,-0.33332 0.12528,-0.0574 0.24985,-0.11592 0.37362,-0.17518 0.12377,-0.0593 0.24675,-0.11923 0.36897,-0.18035 0.12223,-0.0611 0.24368,-0.12355 0.36432,-0.18655 0.12064,-0.063 0.24064,-0.12682 0.35967,-0.19172 0.11902,-0.0649 0.23712,-0.13059 0.3545,-0.1974 0.11737,-0.0668 0.23364,-0.13485 0.34933,-0.20361 0.11569,-0.0688 0.23072,-0.13857 0.34468,-0.20929 0.11396,-0.0707 0.2268,-0.14227 0.339,-0.21497 0.1122,-0.0727 0.22394,-0.14647 0.33435,-0.22118 0.1104,-0.0747 0.21957,-0.15013 0.32814,-0.22686 0.10858,-0.0767 0.21627,-0.1548 0.32298,-0.23358 0.10671,-0.0788 0.21249,-0.15842 0.31729,-0.23926 0.10481,-0.0808 0.20874,-0.16253 0.31161,-0.24546 0.10287,-0.0829 0.20451,-0.16715 0.30541,-0.25218 0.10089,-0.085 0.20084,-0.17122 0.29972,-0.25838 0.0989,-0.0872 0.1972,-0.17528 0.29404,-0.26459 0.0968,-0.0893 0.19256,-0.17982 0.28732,-0.2713 0.0948,-0.0915 0.18848,-0.18383 0.28112,-0.2775 0.16955,-0.17142 0.33755,-0.3461 0.50436,-0.52348 0.16682,-0.17739 0.33254,-0.35736 0.49661,-0.54054 0.16408,-0.18318 0.32649,-0.3693 0.48783,-0.5581 0.16134,-0.18881 0.32147,-0.38038 0.48007,-0.57465 0.15861,-0.19426 0.31594,-0.39111 0.47181,-0.59066 0.15587,-0.19955 0.3104,-0.40201 0.46354,-0.60668 0.15314,-0.20467 0.30485,-0.41153 0.45527,-0.62115 0.15041,-0.20962 0.29931,-0.42174 0.447,-0.63614 0.14768,-0.21439 0.29377,-0.43108 0.43873,-0.65009 0.14496,-0.219 0.28875,-0.44059 0.43098,-0.66404 0.0831,-0.13058 0.16482,-0.26327 0.24702,-0.39532 -2.09014,-1.24858 -6.0125,-3.62287 -6.21978,-3.78427 -0.99666,-0.77675 -1.23816,-2.1194 -0.57878,-3.22047 0.10609,-0.1771 0.76271,-0.94846 1.45935,-1.71308 0.69652,-0.76477 1.35714,-1.53988 1.46761,-1.72186 0.56449,-0.92864 0.25667,-1.81581 -0.78652,-2.27066 -0.12251,-0.0527 -1.3055,-0.37276 -2.6293,-0.71003 -1.32393,-0.33726 -3.26689,-0.83264 -4.31808,-1.10019 -1.0512,-0.26754 -2.39943,-0.61089 -2.99568,-0.76223 -0.5961,-0.15134 -3.67672,-0.935 -6.84609,-1.74098 -7.66937,-1.95036 -8.62571,-2.19421 -10.49755,-2.67374 -1.09018,-0.27859 -1.74295,-0.42996 -2.18437,-0.44803 -0.0552,-0.003 -0.10718,-0.004 -0.15606,-0.003 v 5.1e-4 c -0.34257,0.005 -0.54342,0.10302 -0.75344,0.28474 -0.33315,0.28878 -0.45368,0.68908 -0.36484,1.2082 0.0348,0.20327 0.61933,1.901 1.29863,3.77134 8.41996,23.18345 8.94007,24.59857 9.15758,24.9344 0.4233,0.65309 1.09716,0.88807 1.76992,0.61701 0.43561,-0.17558 0.54484,-0.27904 2.0562,-1.94458 0.73055,-0.80499 1.43155,-1.52261 1.60921,-1.64745 0.79514,-0.55812 1.85318,-0.57635 2.70578,-0.0475 0.34931,0.2166 0.6724,0.58725 1.60713,1.84537 0.33849,0.45554 1.13589,1.54398 1.85415,2.52542 z" /><path
         id="path14867"
         style="fill:url(#linearGradient14889);fill-opacity:1;stroke:none;stroke-width:0.123544;stroke-opacity:1"
         d="m -225.90094,-843.90238 a 31.932924,28.872205 0 0 1 31.93257,28.87245 31.932924,28.872205 0 0 1 -2.27257,10.68386 5.4494842,4.9875053 0 0 0 -3.50912,-1.17764 5.4494842,4.9875053 0 0 0 -5.45027,4.98897 5.4494842,4.9875053 0 0 0 3.25971,4.56312 31.932924,28.872205 0 0 1 -23.96032,9.8125 31.932924,28.872205 0 0 1 -24.28131,-10.15318 5.4494842,4.9875053 0 0 0 3.22113,-4.54838 5.4494842,4.9875053 0 0 0 -5.44831,-4.98733 5.4494842,4.9875053 0 0 0 -3.33993,1.04661 31.932924,28.872205 0 0 1 -2.08442,-10.22853 31.932924,28.872205 0 0 1 31.93284,-28.87245 z m 0,6.61701 a 24.614514,22.255252 0 0 0 -24.61442,22.25544 24.614514,22.255252 0 0 0 24.61442,22.25544 24.614514,22.255252 0 0 0 24.61436,-22.25544 24.614514,22.255252 0 0 0 -24.61436,-22.25544 z" /><path
         id="path14869"
         style="fill:url(#linearGradient14887);fill-opacity:1;fill-rule:evenodd;stroke:none;stroke-width:0.274894;stroke-opacity:1"
         d="m -200.1878,-813.93255 c 0.15019,-5e-4 0.30679,10e-4 0.47088,0.005 4.59315,0.10681 14.38218,1.83667 15.62534,3.7147 2.87171,4.33797 2.20551,19.65915 -2.09117,34.1202 -2.64683,8.90843 -6.66963,17.4906 -12.09529,22.97611 -5.92932,5.99476 -16.22856,7.48388 -26.22766,7.18208 -0.28013,0.009 -0.55789,3e-5 -0.83734,0.005 -0.28013,-0.005 -0.55823,0.003 -0.83701,-0.005 -0.081,0.003 -0.15863,0.004 -0.23963,0.005 -9.92427,0.27102 -20.1064,-1.23985 -25.98874,-7.187 -14.23317,-14.39012 -18.82894,-50.08767 -14.18828,-57.09794 1.24336,-1.87803 11.03229,-3.60623 15.62537,-3.71306 0.65611,-0.0152 1.20759,0.002 1.61158,0.0573 2.36657,0.32361 15.03913,2.35337 24.01603,2.41914 8.9769,-0.0658 21.6499,-2.09553 24.01634,-2.41914 0.30308,-0.0414 0.68847,-0.061 1.1389,-0.0623 z m -52.22163,8.08454 a 5.4494842,4.9875053 0 0 0 -5.45033,4.98733 5.4494842,4.9875053 0 0 0 5.45033,4.98733 5.4494842,4.9875053 0 0 0 5.44831,-4.98733 5.4494842,4.9875053 0 0 0 -5.44831,-4.98733 z m 52.65937,0.3243 a 5.4494842,4.9875053 0 0 0 -5.45027,4.98897 5.4494842,4.9875053 0 0 0 5.45027,4.98733 5.4494842,4.9875053 0 0 0 5.44858,-4.98733 5.4494842,4.9875053 0 0 0 -5.44858,-4.98897 z" /><path
         id="path14873"
         style="font-variation-settings:'wght' 900;fill:url(#linearGradient14885);fill-opacity:1;stroke-width:3.18087;stroke-opacity:0.972549"
         d="m -227.63987,-779.62556 c -0.34257,0.005 -0.54342,0.10353 -0.75344,0.28525 -0.33315,0.28878 -0.45367,0.68907 -0.36483,1.20819 0.0348,0.20328 0.61932,1.9005 1.29862,3.77083 8.41997,23.18345 8.94007,24.59857 9.15758,24.9344 0.4233,0.65309 1.09716,0.88808 1.76992,0.61702 0.43561,-0.17558 0.54484,-0.27905 2.05621,-1.94459 0.73055,-0.80499 1.43154,-1.5226 1.6092,-1.64744 0.79514,-0.55812 1.85318,-0.57636 2.70578,-0.0476 0.34931,0.2166 0.67241,0.58725 1.60714,1.84537 0.35623,0.47943 1.09689,1.49371 1.8526,2.52594 3.26939,-1.12605 6.16423,-2.75449 8.42326,-5.03845 1.79382,-1.81361 3.43097,-3.97089 4.91907,-6.36137 -2.10945,-1.26085 -6.0106,-3.62358 -6.21564,-3.78323 -0.99666,-0.77675 -1.23815,-2.11992 -0.57877,-3.22099 0.10609,-0.1771 0.7627,-0.94846 1.45934,-1.71307 0.69652,-0.76477 1.35714,-1.53988 1.46761,-1.72186 0.56449,-0.92865 0.25667,-1.81582 -0.78651,-2.27067 -0.12251,-0.0527 -1.3055,-0.37276 -2.6293,-0.71003 -1.32394,-0.33726 -3.26741,-0.83264 -4.3186,-1.10019 -1.0512,-0.26754 -2.39943,-0.61089 -2.99568,-0.76223 -0.5961,-0.15134 -3.6762,-0.935 -6.84558,-1.74098 -7.66936,-1.95036 -8.6257,-2.19421 -10.49755,-2.67374 -1.09018,-0.27859 -1.74294,-0.42996 -2.18436,-0.44803 -0.0552,-0.003 -0.10719,-0.004 -0.15607,-0.003 z" /><rect
         style="font-variation-settings:'wght' 900;fill:#ffffff;fill-opacity:1;stroke:none;stroke-width:1.865;stroke-opacity:0.972549"
         id="rect14875"
         width="3.6658437"
         height="12.927976"
         x="770.39459"
         y="-267.68048"
         ry="1.8329219"
         transform="matrix(-0.56045214,-0.82818681,-0.82818681,0.56045214,0,0)" /><rect
         style="font-variation-settings:'wght' 900;fill:#ffffff;fill-opacity:1;stroke:none;stroke-width:1.865;stroke-opacity:0.972549"
         id="rect14877"
         width="3.6658437"
         height="12.927976"
         x="489.69894"
         y="-639.35083"
         ry="1.8329219"
         transform="matrix(-0.9339199,-0.35748234,-0.35748234,0.9339199,0,0)" /><rect
         style="font-variation-settings:'wght' 900;fill:#ffffff;fill-opacity:1;stroke:none;stroke-width:1.865;stroke-opacity:0.972549"
         id="rect14879"
         width="3.6658437"
         height="12.927976"
         x="792.87714"
         y="162.64507"
         ry="1.8329219"
         transform="matrix(-0.08810433,-0.99611125,-0.99611125,0.08810433,0,0)" /><rect
         style="font-variation-settings:'wght' 900;fill:#ffffff;fill-opacity:1;stroke:none;stroke-width:1.865;stroke-opacity:0.972549"
         id="rect14881"
         width="3.6658437"
         height="12.927976"
         x="234.43034"
         y="780.94177"
         ry="1.8329219"
         transform="rotate(-179.30247)" /><rect
         style="font-variation-settings:'wght' 900;fill:#ffffff;fill-opacity:1;stroke:none;stroke-width:1.865;stroke-opacity:0.972549"
         id="rect14883"
         width="3.6658437"
         height="12.927976"
         x="-520.1673"
         y="-643.7298"
         ry="1.8329219"
         transform="matrix(-0.56107315,0.82776622,0.82776622,0.56107315,0,0)" /><text
         xml:space="preserve"
         style="font-style:normal;font-variant:normal;font-weight:normal;font-stretch:normal;font-size:50.6225px;line-height:1.25;font-family:Lato;-inkscape-font-specification:'Lato, Normal';font-variant-ligatures:normal;font-variant-caps:normal;font-variant-numeric:normal;font-variant-east-asian:normal;letter-spacing:2.74262px;word-spacing:0px;fill:#000000;fill-opacity:1;stroke:none;stroke-width:1.26557"
         x="-157.24951"
         y="-811.79889"
         id="text14978"
         inkscape:export-filename="/home/koji/Documents/Design/logo.png"
         inkscape:export-xdpi="96"
         inkscape:export-ydpi="96"
         transform="scale(1.0319169,0.96907029)"><tspan
           sodipodi:role="line"
           id="tspan14976"
           style="font-style:normal;font-variant:normal;font-weight:normal;font-stretch:normal;font-size:50.6225px;font-family:Lato;-inkscape-font-specification:'Lato, Normal';font-variant-ligatures:normal;font-variant-caps:normal;font-variant-numeric:normal;font-variant-east-asian:normal;stroke-width:1.26557"
           x="-157.24951"
           y="-811.79889"><tspan
             style="font-style:normal;font-variant:normal;font-weight:normal;font-stretch:normal;font-size:50.6225px;font-family:Nunito;-inkscape-font-specification:'Nunito, @wght=600';font-variant-ligatures:normal;font-variant-caps:normal;font-variant-numeric:normal;font-variant-east-asian:normal;font-variation-settings:'wght' 600;stroke-width:1.26557"
             id="tspan14974">Linkyi</tspan></tspan></text><text
         xml:space="preserve"
         style="font-style:italic;font-variant:normal;font-weight:900;font-stretch:normal;font-size:37.1131px;line-height:1.25;font-family:Lato;-inkscape-font-specification:'Lato, Heavy Italic';font-variant-ligatures:normal;font-variant-caps:normal;font-variant-numeric:normal;font-variant-east-asian:normal;letter-spacing:2.0107px;word-spacing:0px;fill:#000000;fill-opacity:1;stroke:none;stroke-width:0.927832"
         x="-156.7547"
         y="-776.36444"
         id="text14982"
         inkscape:export-filename="/home/koji/Documents/Design/logo.png"
         inkscape:export-xdpi="96"
         inkscape:export-ydpi="96"
         transform="scale(1.0319169,0.96907029)"><tspan
           sodipodi:role="line"
           id="tspan14980"
           style="font-style:normal;font-variant:normal;font-weight:normal;font-stretch:normal;font-size:37.1131px;font-family:Nunito;-inkscape-font-specification:'Nunito, @wght=600';font-variant-ligatures:normal;font-variant-caps:normal;font-variant-numeric:normal;font-variant-east-asian:normal;font-variation-settings:'wght' 600;stroke-width:0.927832"
           x="-156.7547"
           y="-776.36444">Shop</tspan></text></g></g></svg>
